<?xml version="1.0" encoding="utf-8"?>
<!-- Generator: Adobe Illustrator 16.0.0, SVG Export Plug-In . SVG Version: 6.00 Build 0)  -->
<!DOCTYPE svg PUBLIC "-//W3C//DTD SVG 1.1//EN" "http://www.w3.org/Graphics/SVG/1.1/DTD/svg11.dtd">
<svg version="1.1" id="Layer_1" xmlns="http://www.w3.org/2000/svg" xmlns:xlink="http://www.w3.org/1999/xlink" x="0px" y="0px"
	 width="512px" height="512px" viewBox="0 0 512 512" enable-background="new 0 0 512 512" xml:space="preserve">
<g id="pencil-9-icon">
	<path fill="#F4F4F4" d="M65.911,336.207l233.053-233.055l111.82,111.824L177.655,448.105L37.637,473.947L65.911,336.207z
		 M306.713,95.401l58.022-58.02L476.56,149.203l-58.021,58.02L306.713,95.401z"/>
	<path fill="#B7B7B7" d="M298.964,117.294L75.103,341.156L50.417,461.42l122.365-22.584l223.86-223.86L298.964,117.294z
		 M100.317,366.18l198.785-198.783l12.304,12.303L112.62,378.482L100.317,366.18z M147.495,413.648l-12.303-12.304l198.785-198.783
		l12.304,12.303L147.495,413.648z M462.417,149.203l-43.879,43.878l-97.683-97.68l43.88-43.878L462.417,149.203z"/>
</g>
</svg>
